<?xml version="1.0" encoding="utf-8"?>
<!-- Svg Vector Icons : http://www.onlinewebfonts.com/icon -->
<!DOCTYPE svg PUBLIC "-//W3C//DTD SVG 1.1//EN" "http://www.w3.org/Graphics/SVG/1.1/DTD/svg11.dtd">
<svg version="1.1" xmlns="http://www.w3.org/2000/svg" xmlns:xlink="http://www.w3.org/1999/xlink" x="0px" y="0px" viewBox="0 0 256 256" enable-background="new 0 0 256 256" xml:space="preserve">
<metadata> Svg Vector Icons : http://www.onlinewebfonts.com/icon </metadata>
<g><g><g><path fill="#000000" d="M16.8,0.5c-2.4,0.7-5.7,4.2-6.4,6.6c-0.4,1.5-0.5,38.7-0.4,122l0.2,120l1.3,2c0.7,1.1,2.2,2.6,3.3,3.4l2.1,1.4h84.5H186l2.1-1.4c1.2-0.8,2.7-2.3,3.3-3.4l1.3-2l0.2-44.6l0.1-44.7l-2.6,3.3l-2.6,3.2v40.2c0,30-0.2,40.5-0.6,41.5c-1.4,3,3.7,2.9-85.7,2.9c-89.3,0-84.3,0.2-85.7-2.9c-0.5-1-0.6-29.1-0.6-120.1C15.1-1.2,14.9,7.2,18,5.8c1-0.5,20.9-0.6,83.5-0.6c89.3,0,84.3-0.2,85.6,2.9c0.4,0.9,0.6,4.3,0.6,9.6v8.3l2.7-1.3l2.7-1.3l-0.2-8.2c-0.2-7.8-0.2-8.3-1.6-10.3c-0.8-1.2-2.3-2.7-3.4-3.3l-2-1.3l-83.7-0.1C50.3,0,17.9,0.2,16.8,0.5z"/><path fill="#000000" d="M224.9,14.6c-3.7,0.9-6.8,2.1-8.1,3c-1.1,0.8-4.1,3.9-6.6,6.9c-2.5,3-4.9,5.6-5.2,5.9c-0.4,0.2-2.3,0.9-4.3,1.6c-6.5,2-7.1,2.4-13.5,11c-11.3,15.2-27.5,40-40.7,62.7c-10,17.3-12.2,23.5-12.2,35.3c0,5.4,0.2,8.2,0.9,10.7c1,3.8,4.5,11.1,5.1,10.9c0.3-0.1,16.9-22.8,37.1-50.4c32.7-44.8,38.6-52.7,37.6-50.7c-0.4,0.6-62.7,102.1-64.6,105l-1.3,2.1l2.8-0.4c3.9-0.5,15.5-3.2,20.8-4.8c3.6-1.1,4.9-1.8,7-3.8c4.3-4.1,9.4-12.3,19.4-32.2c8.4-16.7,10.5-20.3,17.7-31.2c4.5-6.7,11-16.2,14.4-20.9c7.8-10.8,9.3-13.9,10.4-20.3c0.5-2.8,1.7-8.6,2.7-12.9c1.6-6.3,1.9-8.9,1.9-13.3c0.1-5-0.1-5.8-1.4-8.5c-2.2-4.6-6.4-7.2-11.3-7.2C231.9,13.1,228.2,13.7,224.9,14.6z"/><path fill="#000000" d="M36.1,31.3v5.2h65.4h65.4v-5.2v-5.2h-65.4H36.1V31.3z"/><path fill="#000000" d="M36.1,62.7v5.2h60.6h60.5l3.1-4.8c1.7-2.6,3.2-5,3.3-5.2c0.1-0.3-28.1-0.5-63.6-0.5H36.1V62.7z"/><path fill="#000000" d="M36.1,94.1v5.2H87h50.9l2.9-4.9c1.6-2.7,2.9-5.1,2.9-5.2s-24.2-0.3-53.9-0.3H36.1V94.1z"/><path fill="#000000" d="M67.9,120.2c-11.2,2-19.8,9.9-22.6,20.8c-4.4,16.8,9,34.2,26.5,34.2c7.7,0,13.6-2.4,19.3-7.7c10.6-10,11.6-26,2.3-37.4c-2.8-3.5-8.4-7.3-12.6-8.7C77,120.1,71.3,119.6,67.9,120.2z M60.1,139.5c0.8,0.6,2.9,1.5,4.8,2.1c2.8,0.9,4.3,1.1,8.4,0.9c5.1-0.2,4.8-0.1,12.7-4c0.8-0.4,5.1,4.6,6.7,7.9c1.1,2.2,1.6,4,1.6,5.6c0,5.5-5.8,13.2-12.6,16.4c-3.3,1.6-3.9,1.7-9.6,1.7s-6.2-0.1-9.6-1.7c-4.9-2.3-8.8-6.2-11.2-10.9c-2.2-4.4-2.1-6.3,0.1-10.9c1.4-2.9,5.7-8.1,6.6-8.1C58.4,138.5,59.3,139,60.1,139.5z"/><path fill="#000000" d="M132.2,175.5c-5.1,8.3-9.2,15.7-12.4,22.5c-2.6,5.5-4.7,10.2-4.6,10.3c0.1,0.1,4-3.4,8.8-7.8c8.5-7.9,8.7-8.1,16.4-19.3c4.2-6.2,7.8-11.7,8-12.1c0.2-0.5-1-1.6-3.7-3.4c-2.1-1.5-4.1-2.7-4.3-2.7C140.1,163.1,136.4,168.7,132.2,175.5z"/><path fill="#000000" d="M50.7,186.8c-8.2,6.4-13.6,14.4-14.7,21.6c-0.3,2-1.6,8.8-2.8,15.1L31,235l41.3,0.2c22.8,0.1,41.4,0.1,41.5-0.1c0.1-0.1-0.9-5.5-2.1-12.1c-1.3-6.5-2.4-12.6-2.4-13.4c0-2.4-1.9-7.6-4.1-11.2c-2.2-3.6-8.1-9.7-11.7-12.2l-2.5-1.7l-1.3,2c-0.7,1.1-3.8,6.1-6.9,11.1c-3,5-5.8,9.3-6,9.5c-0.2,0.2-0.7-3.8-1-8.8c-0.6-8.9-0.6-9.2,0.4-10.1c1.1-1.1,1-2.5-0.2-3.3c-0.9-0.6-6.9-0.5-7.5,0.2c-0.9,0.9-0.8,2.3,0.2,3.3c0.7,0.7,0.8,1.7,0.5,7.2c-0.2,3.5-0.5,7.6-0.7,9.2l-0.4,2.8L61.2,196c-3.9-6.3-7.2-11.5-7.3-11.5C53.7,184.5,52.3,185.5,50.7,186.8z"/></g></g></g>
</svg>